<svg width="249" height="75" viewBox="0 0 249 75" fill="none" xmlns="http://www.w3.org/2000/svg">
<g clip-path="url(#clip0_1_2)">
<path d="M11.84 57.08H37.056V18.744L22.656 49.592L8.256 18.68V59L6.336 58.936V14.136H8.256L22.656 45.048L37.056 14.2L38.976 14.136V59L11.84 58.936V57.08ZM51.3925 21.88H53.3125V59H51.3925V21.88ZM65.455 59V21.88H67.375L88.239 55.48V21.88H90.159V59H88.239L67.375 25.336V59H65.455ZM107.194 59H102.33V21.88H107.194C113.509 21.88 118.543 23.544 122.298 26.872C126.053 30.2 127.93 34.7227 127.93 40.44C127.93 46.1573 126.053 50.68 122.298 54.008C118.543 57.336 113.509 59 107.194 59ZM107.194 57.08C112.954 57.08 117.519 55.608 120.89 52.664C124.303 49.72 126.01 45.6453 126.01 40.44C126.01 35.2347 124.303 31.16 120.89 28.216C117.519 25.272 112.954 23.8 107.194 23.8H104.25V57.08H107.194ZM137.705 21.88H139.625V59H137.705V21.88ZM175.768 21.88V23.8H162.328V59H160.408V23.8H146.968V21.88H175.768ZM201.831 23.864C200.38 23.3947 198.588 23.16 196.455 23.16C194.321 23.16 192.529 23.3947 191.079 23.864C189.628 24.2907 188.284 25.1227 187.047 26.36C185.852 27.5547 184.956 29.3253 184.359 31.672C183.761 33.976 183.463 36.8987 183.463 40.44C183.463 43.9813 183.761 46.9253 184.359 49.272C184.956 51.576 185.852 53.3467 187.047 54.584C188.284 55.7787 189.628 56.6107 191.079 57.08C192.529 57.5067 194.321 57.72 196.455 57.72C198.588 57.72 200.38 57.5067 201.831 57.08C203.281 56.6107 204.604 55.7787 205.799 54.584C207.036 53.3467 207.953 51.576 208.551 49.272C209.148 46.9253 209.447 43.9813 209.447 40.44C209.447 36.8987 209.148 33.976 208.551 31.672C207.953 29.3253 207.036 27.5547 205.799 26.36C204.604 25.1227 203.281 24.2907 201.831 23.864ZM207.911 55.096C205.607 58.1253 201.788 59.64 196.455 59.64C191.121 59.64 187.303 58.1253 184.999 55.096C182.695 52.0667 181.543 47.1813 181.543 40.44C181.543 33.6987 182.695 28.8133 184.999 25.784C187.303 22.7547 191.121 21.24 196.455 21.24C201.788 21.24 205.607 22.7547 207.911 25.784C210.215 28.8133 211.367 33.6987 211.367 40.44C211.367 47.1813 210.215 52.0667 207.911 55.096ZM237.571 40.376L246.275 59H244.163L235.203 39.8C235.288 39.7573 235.651 39.5867 236.291 39.288C236.974 38.9467 237.443 38.712 237.699 38.584C237.955 38.4133 238.382 38.136 238.979 37.752C239.576 37.368 240.024 37.0053 240.323 36.664C240.622 36.28 240.942 35.8533 241.283 35.384C241.667 34.872 241.944 34.3173 242.115 33.72C242.286 33.08 242.371 32.3973 242.371 31.672C242.371 28.984 241.091 27 238.531 25.72C235.971 24.44 232.792 23.8 228.995 23.8H223.875V59H221.955V21.88H228.995C234.03 21.88 237.827 22.7547 240.387 24.504C242.99 26.2533 244.291 28.6427 244.291 31.672C244.291 33.6347 243.63 35.384 242.307 36.92C240.984 38.4133 239.406 39.5653 237.571 40.376Z" fill="black"/>
</g>
<defs>
<clipPath id="clip0_1_2">
<rect width="249" height="75" fill="white"/>
</clipPath>
</defs>
</svg>
