<svg width="512" height="88" viewBox="0 0 512 88" fill="none" xmlns="http://www.w3.org/2000/svg">
<path d="M0.4 88V37.44L22.16 59.328V88H0.4ZM84.88 0.0639954H88.336V88H66.576V49.344L44.304 71.488L22.16 49.344L0.4 27.584V0.0639954H3.728L44.304 40.64L84.88 0.0639954ZM98.65 26.048H113.882V49.088L98.65 33.728V26.048ZM98.65 88V40.768L113.882 56.128V88H98.65ZM126.775 88V52.416L142.007 67.776V88H126.775ZM168.887 39.36L183.863 24.256V88H169.399L168.759 87.488L151.863 70.592L142.007 60.736L126.775 45.376V26.048H129.079L129.463 26.432L168.503 65.472V39.616L168.887 39.36ZM252.842 39.488C256.298 44.608 258.218 50.752 258.218 57.024C258.218 63.296 256.426 69.312 252.842 74.56C252.842 74.56 252.714 74.688 252.714 74.816C246.954 83.136 237.482 88 227.37 88H196.65V50.624L212.01 65.984V72.64H227.37C227.754 72.64 228.138 72.64 228.394 72.512C233.13 72.256 237.354 69.824 240.042 65.984C240.042 65.856 240.17 65.856 240.17 65.856C241.962 63.296 242.858 60.224 242.858 57.024C242.858 53.952 241.834 50.88 240.17 48.192C240.042 48.192 240.042 48.192 240.042 48.192C237.226 43.968 232.49 41.536 227.37 41.536H212.01V59.072L196.65 43.584V26.048H227.37C237.482 26.048 246.954 31.04 252.714 39.36C252.714 39.36 252.714 39.488 252.842 39.488ZM271.15 26.048H286.382V49.088L271.15 33.728V26.048ZM271.15 88V40.768L286.382 56.128V88H271.15ZM322.571 88V55.872L337.803 71.232V88H322.571ZM299.275 26.048H361.227V41.408H337.803V64.192L322.571 48.832V41.408H299.275V26.048ZM426.889 35.136C432.777 41.024 435.977 48.832 435.977 57.024C435.977 64.064 433.673 70.592 429.449 76.096L428.553 77.12L417.673 66.24L418.185 65.344C419.721 62.912 420.617 60.096 420.617 57.024C420.617 52.928 418.953 48.96 416.009 46.016C413.065 43.072 409.097 41.408 405.001 41.408C401.929 41.408 399.113 42.304 396.681 43.84L395.785 44.352L384.905 33.472L385.929 32.576C391.433 28.352 397.961 26.048 405.001 26.048C413.193 26.048 421.001 29.248 426.889 35.136ZM413.321 70.336L414.089 69.696L425.097 80.704L423.945 81.6C418.441 85.824 411.913 88 405.001 88C396.681 88 388.873 84.8 382.985 79.04C377.225 73.152 374.025 65.344 374.025 57.024C374.025 50.112 376.201 43.584 380.425 38.08L381.321 36.928L392.329 47.936L391.689 48.704C390.153 51.264 389.385 54.08 389.385 57.024C389.385 61.248 390.921 65.216 393.865 68.16C396.809 71.104 400.777 72.64 405.001 72.64C407.945 72.64 410.761 71.872 413.321 70.336ZM488.199 64.704L512.007 88H488.199L487.815 87.744L464.007 63.936V64.064L448.775 48.704V26.048H490.119C491.399 26.048 492.551 26.176 493.703 26.432C497.159 27.072 500.359 28.864 502.919 31.424C505.351 33.728 507.015 36.672 507.783 39.872C508.039 41.28 508.167 42.688 508.167 44.096C508.167 44.736 508.167 45.376 508.167 46.016C507.911 51.008 505.863 55.616 502.407 59.2C498.951 62.656 494.343 64.576 489.351 64.704H489.095C488.839 64.704 488.583 64.704 488.199 64.704ZM487.175 49.472C487.559 49.472 487.815 49.344 488.199 49.344C488.455 49.216 488.711 49.216 488.967 49.088C489.735 48.832 490.375 48.448 490.887 47.936C491.015 47.808 491.015 47.68 491.143 47.68V47.552C491.271 47.552 491.271 47.424 491.271 47.424C491.399 47.296 491.399 47.296 491.527 47.168C491.527 47.168 491.527 47.04 491.655 46.912C491.783 46.784 491.911 46.528 491.911 46.4C492.295 45.632 492.423 44.864 492.423 44.096C492.423 44.096 492.423 43.968 492.423 43.84C492.423 43.712 492.423 43.584 492.423 43.584C492.423 43.328 492.295 43.072 492.295 42.944C492.167 42.688 492.167 42.304 492.039 42.048H465.159L472.455 49.472H487.175ZM448.775 88V55.744L464.007 71.104V88H448.775Z" fill="black"/>
</svg>
